<?xml version="1.0" encoding="UTF-8" ?>
<svg width="956pt" height="493pt" viewBox="0.00 0.00 955.76 493.27" xmlns="http://www.w3.org/2000/svg">
<g id="graph0" class="graph" transform="scale(1 1) rotate(0) translate(4 489.2663)">
<title>phenopacket_schema_v1</title>
<polygon fill="transparent" stroke="transparent" points="-4,4 -4,-489.2663 951.7585,-489.2663 951.7585,4 -4,4"/>
<!-- Age -->
<g id="node1" class="node">
<title>Age</title>
<ellipse fill="#458b74" stroke="#000000" cx="488.3533" cy="-93.6999" rx="30.321" ry="19.4695"/>
<text text-anchor="middle" x="488.3533" y="-88.8999" font-family="Calibri" font-size="16.00" fill="#ffffff">Age</text>
</g>
<!-- Biosample -->
<g id="node2" class="node">
<title>Biosample</title>
<ellipse fill="#458b74" stroke="#000000" cx="397.3533" cy="-242.6331" rx="59.9124" ry="19.4695"/>
<text text-anchor="middle" x="397.3533" y="-237.8331" font-family="Calibri" font-size="16.00" fill="#ffffff">Biosample</text>
</g>
<!-- Biosample&#45;&#45;Age -->
<g id="edge11" class="edge">
<title>Biosample--Age</title>
<path fill="none" stroke="#000000" d="M401.6687,-223.1614C406.6667,-203.3512 416.2104,-172.3201 431.3533,-148.9332 441.4639,-133.3182 456.7622,-118.8122 468.9651,-108.588"/>
</g>
<!-- HtsFile -->
<g id="node7" class="node">
<title>HtsFile</title>
<ellipse fill="#458b74" stroke="#000000" cx="778.3533" cy="-168.1665" rx="44.7497" ry="19.4695"/>
<text text-anchor="middle" x="778.3533" y="-163.3665" font-family="Calibri" font-size="16.00" fill="#ffffff">HtsFile</text>
</g>
<!-- Biosample&#45;&#45;HtsFile -->
<g id="edge13" class="edge">
<title>Biosample--HtsFile</title>
<path fill="none" stroke="#000000" d="M441.31,-229.4392C449.5825,-227.2246 458.1962,-225.0979 466.3533,-223.3998 579.7009,-199.8039 611.9052,-214.9656 724.3533,-187.3998 731.216,-185.7175 738.4256,-183.4889 745.262,-181.1465"/>
</g>
<!-- OntologyClass -->
<g id="node10" class="node">
<title>OntologyClass</title>
<ellipse fill="#458b74" stroke="#000000" cx="383.3533" cy="-19.2333" rx="78.6294" ry="19.4695"/>
<text text-anchor="middle" x="383.3533" y="-14.4333" font-family="Calibri" font-size="16.00" fill="#ffffff">OntologyClass</text>
</g>
<!-- Biosample&#45;&#45;OntologyClass -->
<g id="edge9" class="edge">
<title>Biosample--OntologyClass</title>
<path fill="none" stroke="#000000" d="M381.1761,-224.0447C361.6143,-200.2113 329.7688,-156.7115 317.3533,-112.9332 312.6888,-96.4856 310.118,-89.9564 317.3533,-74.4666 324.6252,-58.8987 338.6824,-46.1716 351.9612,-36.8746"/>
</g>
<!-- Procedure -->
<g id="node12" class="node">
<title>Procedure</title>
<ellipse fill="#458b74" stroke="#000000" cx="383.3533" cy="-93.6999" rx="57.3459" ry="19.4695"/>
<text text-anchor="middle" x="383.3533" y="-88.8999" font-family="Calibri" font-size="16.00" fill="#ffffff">Procedure</text>
</g>
<!-- Biosample&#45;&#45;Procedure -->
<g id="edge12" class="edge">
<title>Biosample--Procedure</title>
<path fill="none" stroke="#000000" d="M385.0224,-223.8135C379.011,-213.5142 372.4271,-200.2612 369.3533,-187.3998 363.2743,-161.964 370.1472,-131.9788 376.2283,-112.9074"/>
</g>
<!-- Variant -->
<g id="node15" class="node">
<title>Variant</title>
<ellipse fill="#458b74" stroke="#000000" cx="225.3533" cy="-168.1665" rx="45.4747" ry="19.4695"/>
<text text-anchor="middle" x="225.3533" y="-163.3665" font-family="Calibri" font-size="16.00" fill="#ffffff">Variant</text>
</g>
<!-- Biosample&#45;&#45;Variant -->
<g id="edge14" class="edge">
<title>Biosample--Variant</title>
<path fill="none" stroke="#000000" d="M361.2965,-227.0225C330.5621,-213.7162 286.8044,-194.7715 257.3084,-182.0013"/>
</g>
<!-- PhenotypicFeature -->
<g id="node16" class="node">
<title>PhenotypicFeature</title>
<ellipse fill="#458b74" stroke="#000000" cx="619.3533" cy="-168.1665" rx="96.2857" ry="19.4695"/>
<text text-anchor="middle" x="619.3533" y="-163.3665" font-family="Calibri" font-size="16.00" fill="#ffffff">PhenotypicFeature</text>
</g>
<!-- Biosample&#45;&#45;PhenotypicFeature -->
<g id="edge10" class="edge">
<title>Biosample--PhenotypicFeature</title>
<path fill="none" stroke="#000000" d="M438.8494,-228.7139C475.9967,-216.2534 530.522,-197.9637 569.9163,-184.7494"/>
</g>
<!-- Disease -->
<g id="node3" class="node">
<title>Disease</title>
<ellipse fill="#458b74" stroke="#000000" cx="235.3533" cy="-242.6331" rx="46.4828" ry="19.4695"/>
<text text-anchor="middle" x="235.3533" y="-237.8331" font-family="Calibri" font-size="16.00" fill="#ffffff">Disease</text>
</g>
<!-- Evidence -->
<g id="node4" class="node">
<title>Evidence</title>
<ellipse fill="#458b74" stroke="#000000" cx="627.3533" cy="-93.6999" rx="53.3129" ry="19.4695"/>
<text text-anchor="middle" x="627.3533" y="-88.8999" font-family="Calibri" font-size="16.00" fill="#ffffff">Evidence</text>
</g>
<!-- ExternalReference -->
<g id="node5" class="node">
<title>ExternalReference</title>
<ellipse fill="#458b74" stroke="#000000" cx="627.3533" cy="-19.2333" rx="95.4664" ry="19.4695"/>
<text text-anchor="middle" x="627.3533" y="-14.4333" font-family="Calibri" font-size="16.00" fill="#ffffff">ExternalReference</text>
</g>
<!-- Evidence&#45;&#45;ExternalReference -->
<g id="edge2" class="edge">
<title>Evidence--ExternalReference</title>
<path fill="none" stroke="#000000" d="M627.3533,-74.1347C627.3533,-63.1893 627.3533,-49.5921 627.3533,-38.6679"/>
</g>
<!-- Evidence&#45;&#45;OntologyClass -->
<g id="edge3" class="edge">
<title>Evidence--OntologyClass</title>
<path fill="none" stroke="#000000" d="M586.5132,-81.2359C544.1855,-68.3178 478.0037,-48.1198 432.7579,-34.3111"/>
</g>
<!-- Gene -->
<g id="node6" class="node">
<title>Gene</title>
<ellipse fill="#458b74" stroke="#000000" cx="135.3533" cy="-242.6331" rx="35.3654" ry="19.4695"/>
<text text-anchor="middle" x="135.3533" y="-237.8331" font-family="Calibri" font-size="16.00" fill="#ffffff">Gene</text>
</g>
<!-- Individual -->
<g id="node8" class="node">
<title>Individual</title>
<ellipse fill="#458b74" stroke="#000000" cx="533.3533" cy="-242.6331" rx="57.638" ry="19.4695"/>
<text text-anchor="middle" x="533.3533" y="-237.8331" font-family="Calibri" font-size="16.00" fill="#ffffff">Individual</text>
</g>
<!-- Individual&#45;&#45;Age -->
<g id="edge5" class="edge">
<title>Individual--Age</title>
<path fill="none" stroke="#000000" d="M491.9373,-229.0126C472.6313,-220.3445 451.5,-206.9843 440.3533,-187.3998 431.8966,-172.5416 434.3672,-164.9472 440.3533,-148.9332 446.225,-133.2253 458.8032,-119.0313 469.6108,-108.9663"/>
</g>
<!-- Sex -->
<g id="node14" class="node">
<title>Sex</title>
<ellipse fill="#458b74" stroke="#000000" cx="477.3533" cy="-168.1665" rx="28.0657" ry="19.4695"/>
<text text-anchor="middle" x="477.3533" y="-163.3665" font-family="Calibri" font-size="16.00" fill="#ffffff">Sex</text>
</g>
<!-- Individual&#45;&#45;Sex -->
<g id="edge4" class="edge">
<title>Individual--Sex</title>
<path fill="none" stroke="#000000" d="M519.2221,-223.8421C510.409,-212.1226 499.1433,-197.142 490.5182,-185.6727"/>
</g>
<!-- MetaData -->
<g id="node9" class="node">
<title>MetaData</title>
<ellipse fill="#458b74" stroke="#000000" cx="855.3533" cy="-242.6331" rx="55.8294" ry="19.4695"/>
<text text-anchor="middle" x="855.3533" y="-237.8331" font-family="Calibri" font-size="16.00" fill="#ffffff">MetaData</text>
</g>
<!-- Resource -->
<g id="node13" class="node">
<title>Resource</title>
<ellipse fill="#458b74" stroke="#000000" cx="894.3533" cy="-168.1665" rx="53.3106" ry="19.4695"/>
<text text-anchor="middle" x="894.3533" y="-163.3665" font-family="Calibri" font-size="16.00" fill="#ffffff">Resource</text>
</g>
<!-- MetaData&#45;&#45;Resource -->
<g id="edge1" class="edge">
<title>MetaData--Resource</title>
<path fill="none" stroke="#000000" d="M865.3968,-223.4561C871.2196,-212.338 878.5268,-198.3856 884.3439,-187.2785"/>
</g>
<!-- Pedigree -->
<g id="node11" class="node">
<title>Pedigree</title>
<ellipse fill="#458b74" stroke="#000000" cx="428.3533" cy="-317.0997" rx="50.7874" ry="19.4695"/>
<text text-anchor="middle" x="428.3533" y="-312.2997" font-family="Calibri" font-size="16.00" fill="#ffffff">Pedigree</text>
</g>
<!-- Procedure&#45;&#45;OntologyClass -->
<g id="edge15" class="edge">
<title>Procedure--OntologyClass</title>
<path fill="none" stroke="#000000" d="M383.3533,-74.1347C383.3533,-63.1893 383.3533,-49.5921 383.3533,-38.6679"/>
</g>
<!-- Variant&#45;&#45;OntologyClass -->
<g id="edge16" class="edge">
<title>Variant--OntologyClass</title>
<path fill="none" stroke="#000000" d="M233.8727,-148.9655C243.6974,-128.5134 261.4771,-96.1602 284.3533,-74.4666 301.3479,-58.3506 323.9347,-45.2826 343.2425,-35.9113"/>
</g>
<!-- PhenotypicFeature&#45;&#45;Age -->
<g id="edge7" class="edge">
<title>PhenotypicFeature--Age</title>
<path fill="none" stroke="#000000" d="M587.3071,-149.9499C563.6741,-136.5158 532.0985,-118.5668 511.0362,-106.594"/>
</g>
<!-- PhenotypicFeature&#45;&#45;Evidence -->
<g id="edge8" class="edge">
<title>PhenotypicFeature--Evidence</title>
<path fill="none" stroke="#000000" d="M621.4552,-148.6013C622.6311,-137.6559 624.0918,-124.0587 625.2654,-113.1345"/>
</g>
<!-- PhenotypicFeature&#45;&#45;OntologyClass -->
<g id="edge6" class="edge">
<title>PhenotypicFeature--OntologyClass</title>
<path fill="none" stroke="#000000" d="M600.5685,-148.9339C573.9753,-121.7209 528.4316,-75.1737 527.3533,-74.4666 499.4764,-56.1864 464.6559,-42.623 436.239,-33.5122"/>
</g>
<!-- Phenopacket -->
<g id="node17" class="node">
<title>Phenopacket</title>
<ellipse fill="#00688b" stroke="#000000" cx="566.3533" cy="-317.0997" rx="69.2402" ry="19.4695"/>
<text text-anchor="middle" x="566.3533" y="-312.2997" font-family="Calibri" font-size="16.00" fill="#ffffff">Phenopacket</text>
</g>
<!-- Phenopacket&#45;&#45;Biosample -->
<g id="edge19" class="edge">
<title>Phenopacket--Biosample</title>
<path fill="none" stroke="#000000" d="M529.2655,-300.7577C500.505,-288.085 460.91,-270.6382 432.6205,-258.1729"/>
</g>
<!-- Phenopacket&#45;&#45;Disease -->
<g id="edge21" class="edge">
<title>Phenopacket--Disease</title>
<path fill="none" stroke="#000000" d="M515.2632,-304.0571C506.3149,-301.9 497.0777,-299.7541 488.3533,-297.8664 403.0695,-279.4137 379.9558,-283.2265 295.3533,-261.8664 287.5049,-259.8849 279.1804,-257.4419 271.3109,-254.9697"/>
</g>
<!-- Phenopacket&#45;&#45;Gene -->
<g id="edge20" class="edge">
<title>Phenopacket--Gene</title>
<path fill="none" stroke="#000000" d="M516.2021,-303.7517C506.9833,-301.5784 497.4113,-299.5059 488.3533,-297.8664 352.736,-273.3204 313.5373,-297.315 180.3533,-261.8664 174.2777,-260.2493 167.9544,-257.96 162.0344,-255.5223"/>
</g>
<!-- Phenopacket&#45;&#45;HtsFile -->
<g id="edge23" class="edge">
<title>Phenopacket--HtsFile</title>
<path fill="none" stroke="#000000" d="M587.1462,-298.38C609.5699,-278.6248 646.7229,-247.1252 681.3533,-223.3998 703.4153,-208.285 729.8788,-193.4157 749.5875,-182.9194"/>
</g>
<!-- Phenopacket&#45;&#45;Individual -->
<g id="edge17" class="edge">
<title>Phenopacket--Individual</title>
<path fill="none" stroke="#000000" d="M557.855,-297.9227C552.928,-286.8046 546.745,-272.8522 541.8228,-261.7451"/>
</g>
<!-- Phenopacket&#45;&#45;MetaData -->
<g id="edge24" class="edge">
<title>Phenopacket--MetaData</title>
<path fill="none" stroke="#000000" d="M617.3555,-303.958C672.1261,-289.8453 758.3033,-267.64 810.5513,-254.1773"/>
</g>
<!-- Phenopacket&#45;&#45;Variant -->
<g id="edge22" class="edge">
<title>Phenopacket--Variant</title>
<path fill="none" stroke="#000000" d="M514.7826,-304.2257C505.9724,-302.0715 496.9056,-299.8828 488.3533,-297.8664 417.4095,-281.1404 392.0941,-297.2204 328.3533,-261.8664 307.3379,-250.2102 307.9709,-239.7441 290.3533,-223.3998 276.1316,-210.206 259.4443,-196.0521 246.5388,-185.3755"/>
</g>
<!-- Phenopacket&#45;&#45;PhenotypicFeature -->
<g id="edge18" class="edge">
<title>Phenopacket--PhenotypicFeature</title>
<path fill="none" stroke="#000000" d="M580.4022,-298.0459C587.3516,-287.7878 595.3098,-274.6447 600.3533,-261.8664 610.0425,-237.3179 615.0253,-207.1178 617.4102,-187.7562"/>
</g>
<!-- Cohort -->
<g id="node18" class="node">
<title>Cohort</title>
<ellipse fill="#00688b" stroke="#000000" cx="776.3533" cy="-391.5663" rx="42.9809" ry="19.4695"/>
<text text-anchor="middle" x="776.3533" y="-386.7663" font-family="Calibri" font-size="16.00" fill="#ffffff">Cohort</text>
</g>
<!-- Cohort&#45;&#45;HtsFile -->
<g id="edge26" class="edge">
<title>Cohort--HtsFile</title>
<path fill="none" stroke="#000000" d="M776.5273,-372.1319C776.9055,-329.8819 777.7991,-230.0686 778.1783,-187.7151"/>
</g>
<!-- Cohort&#45;&#45;MetaData -->
<g id="edge27" class="edge">
<title>Cohort--MetaData</title>
<path fill="none" stroke="#000000" d="M786.3587,-372.7039C801.4717,-344.2124 829.968,-290.4903 845.1796,-261.8129"/>
</g>
<!-- Cohort&#45;&#45;Phenopacket -->
<g id="edge25" class="edge">
<title>Cohort--Phenopacket</title>
<path fill="none" stroke="#000000" d="M743.3759,-379.2675C737.0683,-376.9439 730.5123,-374.5484 724.3533,-372.333 685.7993,-358.4655 641.784,-343.1183 610.0192,-332.1283"/>
</g>
<!-- Family -->
<g id="node19" class="node">
<title>Family</title>
<ellipse fill="#00688b" stroke="#000000" cx="672.3533" cy="-391.5663" rx="43.2426" ry="19.4695"/>
<text text-anchor="middle" x="672.3533" y="-386.7663" font-family="Calibri" font-size="16.00" fill="#ffffff">Family</text>
</g>
<!-- Family&#45;&#45;HtsFile -->
<g id="edge30" class="edge">
<title>Family--HtsFile</title>
<path fill="none" stroke="#000000" d="M681.3908,-372.5194C701.4172,-330.3129 749.3336,-229.327 769.3387,-187.1653"/>
</g>
<!-- Family&#45;&#45;MetaData -->
<g id="edge31" class="edge">
<title>Family--MetaData</title>
<path fill="none" stroke="#000000" d="M693.3457,-374.4818C728.2703,-346.0587 797.9678,-289.3359 833.4723,-260.4408"/>
</g>
<!-- Family&#45;&#45;Pedigree -->
<g id="edge29" class="edge">
<title>Family--Pedigree</title>
<path fill="none" stroke="#000000" d="M639.4952,-378.9164C633.1767,-376.6251 626.5861,-374.3314 620.3533,-372.333 562.4473,-353.7676 546.6542,-353.6184 488.3533,-336.333 481.4315,-334.2808 474.0908,-332.0084 467.0071,-329.7657"/>
</g>
<!-- Family&#45;&#45;Phenopacket -->
<g id="edge28" class="edge">
<title>Family--Phenopacket</title>
<path fill="none" stroke="#000000" d="M649.0912,-375.2243C632.2709,-363.4078 609.5423,-347.4407 592.1631,-335.2315"/>
</g>
<!-- Interpretation -->
<g id="node20" class="node">
<title>Interpretation</title>
<ellipse fill="#ff8c00" stroke="#000000" cx="523.3533" cy="-466.033" rx="72.766" ry="19.4695"/>
<text text-anchor="middle" x="523.3533" y="-461.233" font-family="Calibri" font-size="16.00" fill="#ffffff">Interpretation</text>
</g>
<!-- Interpretation&#45;&#45;MetaData -->
<g id="edge34" class="edge">
<title>Interpretation--MetaData</title>
<path fill="none" stroke="#000000" d="M595.123,-462.4083C674.8848,-456.8202 796.6636,-443.1281 828.3533,-410.7997 867.8886,-370.4674 863.4596,-296.7076 858.6616,-261.8515"/>
</g>
<!-- Interpretation&#45;&#45;Phenopacket -->
<g id="edge32" class="edge">
<title>Interpretation--Phenopacket</title>
<path fill="none" stroke="#000000" d="M476.4153,-451.1913C457.3697,-442.5965 437.3103,-429.6476 426.3533,-410.7997 417.761,-396.0194 416.7352,-386.4672 426.3533,-372.333 437.0106,-356.6718 480.5094,-341.0321 516.2274,-330.4139"/>
</g>
<!-- Interpretation&#45;&#45;Family -->
<g id="edge33" class="edge">
<title>Interpretation--Family</title>
<path fill="none" stroke="#000000" d="M557.5369,-448.9488C583.4841,-435.981 618.7681,-418.3469 643.347,-406.063"/>
</g>
<!-- ResolutionStatus -->
<g id="node21" class="node">
<title>ResolutionStatus</title>
<ellipse fill="#ff8c00" stroke="#000000" cx="523.3533" cy="-391.5663" rx="87.9938" ry="19.4695"/>
<text text-anchor="middle" x="523.3533" y="-386.7663" font-family="Calibri" font-size="16.00" fill="#ffffff">ResolutionStatus</text>
</g>
<!-- Interpretation&#45;&#45;ResolutionStatus -->
<g id="edge36" class="edge">
<title>Interpretation--ResolutionStatus</title>
<path fill="none" stroke="#000000" d="M523.3533,-446.4677C523.3533,-435.5223 523.3533,-421.9251 523.3533,-411.0009"/>
</g>
<!-- Diagnosis -->
<g id="node23" class="node">
<title>Diagnosis</title>
<ellipse fill="#ff8c00" stroke="#000000" cx="256.3533" cy="-391.5663" rx="56.6236" ry="19.4695"/>
<text text-anchor="middle" x="256.3533" y="-386.7663" font-family="Calibri" font-size="16.00" fill="#ffffff">Diagnosis</text>
</g>
<!-- Interpretation&#45;&#45;Diagnosis -->
<g id="edge35" class="edge">
<title>Interpretation--Diagnosis</title>
<path fill="none" stroke="#000000" d="M473.1327,-452.0264C423.2824,-438.1231 347.6377,-417.0257 300.1579,-403.7835"/>
</g>
<!-- GenomicInterpretation -->
<g id="node22" class="node">
<title>GenomicInterpretation</title>
<ellipse fill="#ff8c00" stroke="#000000" cx="114.3533" cy="-317.0997" rx="114.2068" ry="19.4695"/>
<text text-anchor="middle" x="114.3533" y="-312.2997" font-family="Calibri" font-size="16.00" fill="#ffffff">GenomicInterpretation</text>
</g>
<!-- GenomicInterpretation&#45;&#45;Gene -->
<g id="edge40" class="edge">
<title>GenomicInterpretation--Gene</title>
<path fill="none" stroke="#000000" d="M119.8708,-297.5345C122.9818,-286.5029 126.8524,-272.7776 129.9453,-261.8101"/>
</g>
<!-- GenomicInterpretation&#45;&#45;Variant -->
<g id="edge39" class="edge">
<title>GenomicInterpretation--Variant</title>
<path fill="none" stroke="#000000" d="M101.4392,-297.9695C89.6425,-277.8713 76.165,-246.0882 91.3533,-223.3998 111.37,-193.4987 150.8359,-179.7684 181.7769,-173.4731"/>
</g>
<!-- Diagnosis&#45;&#45;Disease -->
<g id="edge37" class="edge">
<title>Diagnosis--Disease</title>
<path fill="none" stroke="#000000" d="M253.6079,-372.0959C249.5833,-343.553 242.1244,-290.654 238.0994,-262.1083"/>
</g>
<!-- Diagnosis&#45;&#45;GenomicInterpretation -->
<g id="edge38" class="edge">
<title>Diagnosis--GenomicInterpretation</title>
<path fill="none" stroke="#000000" d="M225.5414,-375.4082C203.1099,-363.6448 172.6985,-347.6967 149.3505,-335.4527"/>
</g>
</g>
</svg>