<?xml version="1.0" encoding="UTF-8" ?>
<svg width="1416pt" height="566pt" viewBox="0.00 0.00 1416.43 565.60" xmlns="http://www.w3.org/2000/svg">
<g id="graph0" class="graph" transform="scale(1 1) rotate(0) translate(4 561.6)">
<title>phenopacket_schema_v2_overview</title>
<polygon fill="#ffffff" stroke="transparent" points="-4,4 -4,-561.6 1412.4268,-561.6 1412.4268,4 -4,4"/>
<text text-anchor="middle" x="704.2134" y="-6.4" font-family="Bitstream Vera Sans" font-size="8.00" fill="#000000">Phenopacket schema v2.0</text>
<!-- OntologyClass -->
<g id="node1" class="node">
<title>OntologyClass</title>
<ellipse fill="#1b75bc" stroke="#444444" cx="36.4268" cy="-35.6" rx="36.3538" ry="18"/>
<text text-anchor="middle" x="36.4268" y="-33.2" font-family="Bitstream Vera Sans" font-size="8.00" fill="#ffffff">OntologyClass</text>
</g>
<!-- ExternalReference -->
<g id="node2" class="node">
<title>ExternalReference</title>
<ellipse fill="#1b75bc" stroke="#444444" cx="1230.4268" cy="-179.6" rx="43.0686" ry="18"/>
<text text-anchor="middle" x="1230.4268" y="-177.2" font-family="Bitstream Vera Sans" font-size="8.00" fill="#ffffff">ExternalReference</text>
</g>
<!-- Evidence -->
<g id="node3" class="node">
<title>Evidence</title>
<ellipse fill="#1b75bc" stroke="#444444" cx="1230.4268" cy="-251.6" rx="27" ry="18"/>
<text text-anchor="middle" x="1230.4268" y="-249.2" font-family="Bitstream Vera Sans" font-size="8.00" fill="#ffffff">Evidence</text>
</g>
<!-- ExternalReference&#45;&gt;Evidence -->
<g id="edge55" class="edge">
<title>ExternalReference-&gt;Evidence</title>
<path fill="none" stroke="#444444" d="M1230.4268,-197.7686C1230.4268,-205.469 1230.4268,-214.6257 1230.4268,-223.1834"/>
<polygon fill="#444444" stroke="#444444" points="1226.9269,-223.1867 1230.4268,-233.1867 1233.9269,-223.1868 1226.9269,-223.1867"/>
</g>
<!-- TherapeuticRegimen -->
<g id="node44" class="node">
<title>TherapeuticRegimen</title>
<ellipse fill="#aaaaaa" stroke="#444444" cx="1137.4268" cy="-251.6" rx="47.7442" ry="18"/>
<text text-anchor="middle" x="1137.4268" y="-249.2" font-family="Bitstream Vera Sans" font-size="8.00" fill="#ffffff">TherapeuticRegimen</text>
</g>
<!-- ExternalReference&#45;&gt;TherapeuticRegimen -->
<g id="edge46" class="edge">
<title>ExternalReference-&gt;TherapeuticRegimen</title>
<path fill="none" stroke="#444444" d="M1209.7871,-195.5791C1196.9934,-205.484 1180.3701,-218.3536 1166.2833,-229.2595"/>
<polygon fill="#444444" stroke="#444444" points="1164.0951,-226.5273 1158.3304,-235.4166 1168.3803,-232.0623 1164.0951,-226.5273"/>
</g>
<!-- MetaData -->
<g id="node54" class="node">
<title>MetaData</title>
<ellipse fill="#1b75bc" stroke="#444444" cx="1096.4268" cy="-395.6" rx="27.4962" ry="18"/>
<text text-anchor="middle" x="1096.4268" y="-393.2" font-family="Bitstream Vera Sans" font-size="8.00" fill="#ffffff">MetaData</text>
</g>
<!-- ExternalReference&#45;&gt;MetaData -->
<g id="edge54" class="edge">
<title>ExternalReference-&gt;MetaData</title>
<path fill="none" stroke="#444444" d="M1245.8426,-196.5655C1260.574,-214.9467 1278.8394,-244.9498 1266.4268,-269.6 1237.8233,-326.4038 1170.1619,-364.0023 1129.3497,-382.3933"/>
<polygon fill="#444444" stroke="#444444" points="1127.8446,-379.2314 1120.0858,-386.4461 1130.6503,-385.6446 1127.8446,-379.2314"/>
</g>
<!-- PhenotypicFeature -->
<g id="node14" class="node">
<title>PhenotypicFeature</title>
<ellipse fill="#1b75bc" stroke="#444444" cx="1039.4268" cy="-323.6" rx="43.6022" ry="18"/>
<text text-anchor="middle" x="1039.4268" y="-321.2" font-family="Bitstream Vera Sans" font-size="8.00" fill="#ffffff">PhenotypicFeature</text>
</g>
<!-- Evidence&#45;&gt;PhenotypicFeature -->
<g id="edge51" class="edge">
<title>Evidence-&gt;PhenotypicFeature</title>
<path fill="none" stroke="#444444" d="M1208.9354,-262.9082C1204.2085,-265.2366 1199.1907,-267.589 1194.4268,-269.6 1183.8017,-274.0853 1124.6294,-294.4927 1082.5596,-308.8908"/>
<polygon fill="#444444" stroke="#444444" points="1081.4004,-305.5881 1073.0709,-312.1357 1083.6654,-312.2116 1081.4004,-305.5881"/>
</g>
<!-- Procedure -->
<g id="node4" class="node">
<title>Procedure</title>
<ellipse fill="#1b75bc" stroke="#444444" cx="867.4268" cy="-251.6" rx="27.5159" ry="18"/>
<text text-anchor="middle" x="867.4268" y="-249.2" font-family="Bitstream Vera Sans" font-size="8.00" fill="#ffffff">Procedure</text>
</g>
<!-- Biosample -->
<g id="node13" class="node">
<title>Biosample</title>
<ellipse fill="#1b75bc" stroke="#444444" cx="884.4268" cy="-395.6" rx="28.5687" ry="18"/>
<text text-anchor="middle" x="884.4268" y="-393.2" font-family="Bitstream Vera Sans" font-size="8.00" fill="#ffffff">Biosample</text>
</g>
<!-- Procedure&#45;&gt;Biosample -->
<g id="edge9" class="edge">
<title>Procedure-&gt;Biosample</title>
<path fill="none" stroke="#444444" d="M869.5799,-269.8377C872.4795,-294.399 877.6685,-338.3526 881.0795,-367.2459"/>
<polygon fill="#444444" stroke="#444444" points="877.6429,-367.9897 882.2912,-377.5104 884.5946,-367.169 877.6429,-367.9897"/>
</g>
<!-- Measurement -->
<g id="node16" class="node">
<title>Measurement</title>
<ellipse fill="#4da8d4" stroke="#444444" cx="814.4268" cy="-323.6" rx="34.2495" ry="18"/>
<text text-anchor="middle" x="814.4268" y="-321.2" font-family="Bitstream Vera Sans" font-size="8.00" fill="#ffffff">Measurement</text>
</g>
<!-- Procedure&#45;&gt;Measurement -->
<g id="edge36" class="edge">
<title>Procedure-&gt;Measurement</title>
<path fill="none" stroke="#444444" d="M855.4003,-267.9379C848.7671,-276.9491 840.3886,-288.3312 832.9391,-298.4512"/>
<polygon fill="#444444" stroke="#444444" points="830.0683,-296.4472 826.9588,-306.5755 835.7057,-300.597 830.0683,-296.4472"/>
</g>
<!-- MedicalAction -->
<g id="node41" class="node">
<title>MedicalAction</title>
<ellipse fill="#aaaaaa" stroke="#444444" cx="941.4268" cy="-323.6" rx="36.8479" ry="18"/>
<text text-anchor="middle" x="941.4268" y="-321.2" font-family="Bitstream Vera Sans" font-size="8.00" fill="#ffffff">MedicalAction</text>
</g>
<!-- Procedure&#45;&gt;MedicalAction -->
<g id="edge37" class="edge">
<title>Procedure-&gt;MedicalAction</title>
<path fill="none" stroke="#444444" d="M883.1203,-266.8693C893.048,-276.5287 906.08,-289.2085 917.3053,-300.1304"/>
<polygon fill="#444444" stroke="#444444" points="915.1195,-302.887 924.7275,-307.352 920.001,-297.8699 915.1195,-302.887"/>
</g>
<!-- Sex -->
<g id="node5" class="node">
<title>Sex</title>
<ellipse fill="#1b75bc" stroke="#444444" cx="310.4268" cy="-323.6" rx="27" ry="18"/>
<text text-anchor="middle" x="310.4268" y="-321.2" font-family="Bitstream Vera Sans" font-size="8.00" fill="#ffffff">Sex</text>
</g>
<!-- Individual -->
<g id="node19" class="node">
<title>Individual</title>
<ellipse fill="#1b75bc" stroke="#444444" cx="434.4268" cy="-395.6" rx="28.0374" ry="18"/>
<text text-anchor="middle" x="434.4268" y="-393.2" font-family="Bitstream Vera Sans" font-size="8.00" fill="#ffffff">Individual</text>
</g>
<!-- Sex&#45;&gt;Individual -->
<g id="edge14" class="edge">
<title>Sex-&gt;Individual</title>
<path fill="none" stroke="#444444" d="M330.9029,-335.4893C350.975,-347.1441 381.7933,-365.0386 404.5894,-378.2751"/>
<polygon fill="#444444" stroke="#444444" points="403.1005,-381.4577 413.5059,-383.4523 406.6155,-375.4042 403.1005,-381.4577"/>
</g>
<!-- Person -->
<g id="node49" class="node">
<title>Person</title>
<ellipse fill="#8bc751" stroke="#444444" cx="310.4268" cy="-395.6" rx="27" ry="18"/>
<text text-anchor="middle" x="310.4268" y="-393.2" font-family="Bitstream Vera Sans" font-size="8.00" fill="#ffffff">Person</text>
</g>
<!-- Sex&#45;&gt;Person -->
<g id="edge49" class="edge">
<title>Sex-&gt;Person</title>
<path fill="none" stroke="#444444" d="M310.4268,-341.7686C310.4268,-349.469 310.4268,-358.6257 310.4268,-367.1834"/>
<polygon fill="#444444" stroke="#444444" points="306.9269,-367.1867 310.4268,-377.1867 313.9269,-367.1868 306.9269,-367.1867"/>
</g>
<!-- KaryotypicSex -->
<g id="node6" class="node">
<title>KaryotypicSex</title>
<ellipse fill="#1b75bc" stroke="#444444" cx="392.4268" cy="-323.6" rx="36.8497" ry="18"/>
<text text-anchor="middle" x="392.4268" y="-321.2" font-family="Bitstream Vera Sans" font-size="8.00" fill="#ffffff">KaryotypicSex</text>
</g>
<!-- KaryotypicSex&#45;&gt;Individual -->
<g id="edge15" class="edge">
<title>KaryotypicSex-&gt;Individual</title>
<path fill="none" stroke="#444444" d="M402.5939,-341.0292C407.598,-349.6078 413.7324,-360.1238 419.2758,-369.6268"/>
<polygon fill="#444444" stroke="#444444" points="416.2914,-371.4571 424.3534,-378.3313 422.3379,-367.9299 416.2914,-371.4571"/>
</g>
<!-- GestationalAge -->
<g id="node7" class="node">
<title>GestationalAge</title>
<ellipse fill="#1b75bc" stroke="#444444" cx="1230.4268" cy="-107.6" rx="37.883" ry="18"/>
<text text-anchor="middle" x="1230.4268" y="-105.2" font-family="Bitstream Vera Sans" font-size="8.00" fill="#ffffff">GestationalAge</text>
</g>
<!-- TimeElement -->
<g id="node8" class="node">
<title>TimeElement</title>
<ellipse fill="#1b75bc" stroke="#444444" cx="1325.4268" cy="-179.6" rx="34.2578" ry="18"/>
<text text-anchor="middle" x="1325.4268" y="-177.2" font-family="Bitstream Vera Sans" font-size="8.00" fill="#ffffff">TimeElement</text>
</g>
<!-- GestationalAge&#45;&gt;TimeElement -->
<g id="edge1" class="edge">
<title>GestationalAge-&gt;TimeElement</title>
<path fill="none" stroke="#444444" d="M1250.5739,-122.8693C1264.2686,-133.2485 1282.5648,-147.1151 1297.6403,-158.5407"/>
<polygon fill="#444444" stroke="#444444" points="1295.5508,-161.3487 1305.6346,-164.5996 1299.7789,-155.7699 1295.5508,-161.3487"/>
</g>
<!-- Age -->
<g id="node9" class="node">
<title>Age</title>
<ellipse fill="#1b75bc" stroke="#444444" cx="1381.4268" cy="-35.6" rx="27" ry="18"/>
<text text-anchor="middle" x="1381.4268" y="-33.2" font-family="Bitstream Vera Sans" font-size="8.00" fill="#ffffff">Age</text>
</g>
<!-- Age&#45;&gt;TimeElement -->
<g id="edge2" class="edge">
<title>Age-&gt;TimeElement</title>
<path fill="none" stroke="#444444" d="M1388.6509,-53.0889C1395.2585,-71.9178 1402.4678,-102.301 1391.4268,-125.6 1384.4728,-140.2748 1371.3613,-152.2878 1358.6457,-161.2259"/>
<polygon fill="#444444" stroke="#444444" points="1356.4204,-158.5001 1349.9863,-166.9175 1360.2652,-164.3497 1356.4204,-158.5001"/>
</g>
<!-- AgeRange -->
<g id="node10" class="node">
<title>AgeRange</title>
<ellipse fill="#1b75bc" stroke="#444444" cx="1353.4268" cy="-107.6" rx="28.5462" ry="18"/>
<text text-anchor="middle" x="1353.4268" y="-105.2" font-family="Bitstream Vera Sans" font-size="8.00" fill="#ffffff">AgeRange</text>
</g>
<!-- Age&#45;&gt;AgeRange -->
<g id="edge3" class="edge">
<title>Age-&gt;AgeRange</title>
<path fill="none" stroke="#444444" d="M1374.6488,-53.0292C1371.4396,-61.2813 1367.5333,-71.3262 1363.9511,-80.5377"/>
<polygon fill="#444444" stroke="#444444" points="1360.602,-79.4931 1360.2395,-90.0818 1367.126,-82.0303 1360.602,-79.4931"/>
</g>
<!-- AgeRange&#45;&gt;TimeElement -->
<g id="edge4" class="edge">
<title>AgeRange-&gt;TimeElement</title>
<path fill="none" stroke="#444444" d="M1346.5055,-125.3978C1343.342,-133.5325 1339.5241,-143.3499 1336.0117,-152.3819"/>
<polygon fill="#444444" stroke="#444444" points="1332.7281,-151.1688 1332.3656,-161.7575 1339.2521,-153.706 1332.7281,-151.1688"/>
</g>
<!-- Timestamp -->
<g id="node11" class="node">
<title>Timestamp</title>
<ellipse fill="#1b75bc" stroke="#444444" cx="1238.4268" cy="-35.6" rx="29.6034" ry="18"/>
<text text-anchor="middle" x="1238.4268" y="-33.2" font-family="Bitstream Vera Sans" font-size="8.00" fill="#ffffff">Timestamp</text>
</g>
<!-- Timestamp&#45;&gt;TimeElement -->
<g id="edge6" class="edge">
<title>Timestamp-&gt;TimeElement</title>
<path fill="none" stroke="#444444" d="M1251.3266,-52.2186C1259.2314,-62.696 1269.3478,-76.6482 1277.4268,-89.6 1290.2375,-110.1371 1303.0522,-134.4011 1312.2145,-152.5572"/>
<polygon fill="#444444" stroke="#444444" points="1309.3072,-154.5698 1316.9056,-161.9532 1315.57,-151.4428 1309.3072,-154.5698"/>
</g>
<!-- TimeInterval -->
<g id="node12" class="node">
<title>TimeInterval</title>
<ellipse fill="#1b75bc" stroke="#444444" cx="1141.4268" cy="-107.6" rx="33.2126" ry="18"/>
<text text-anchor="middle" x="1141.4268" y="-105.2" font-family="Bitstream Vera Sans" font-size="8.00" fill="#ffffff">TimeInterval</text>
</g>
<!-- Timestamp&#45;&gt;TimeInterval -->
<g id="edge5" class="edge">
<title>Timestamp-&gt;TimeInterval</title>
<path fill="none" stroke="#444444" d="M1219.2627,-49.8249C1205.1008,-60.3369 1185.5934,-74.8166 1169.6507,-86.6503"/>
<polygon fill="#444444" stroke="#444444" points="1167.1607,-84.1397 1161.217,-92.9104 1171.3328,-89.7605 1167.1607,-84.1397"/>
</g>
<!-- TimeInterval&#45;&gt;TimeElement -->
<g id="edge7" class="edge">
<title>TimeInterval-&gt;TimeElement</title>
<path fill="none" stroke="#444444" d="M1167.546,-119.0624C1172.7833,-121.2848 1178.2633,-123.5566 1183.4268,-125.6 1226.9606,-142.8282 1238.8207,-144.5559 1282.4268,-161.6 1284.6528,-162.47 1286.9374,-163.3789 1289.2375,-164.306"/>
<polygon fill="#444444" stroke="#444444" points="1288.0892,-167.6178 1298.6697,-168.1676 1290.7413,-161.1397 1288.0892,-167.6178"/>
</g>
<!-- DoseInterval -->
<g id="node46" class="node">
<title>DoseInterval</title>
<ellipse fill="#aaaaaa" stroke="#444444" cx="998.4268" cy="-179.6" rx="32.7003" ry="18"/>
<text text-anchor="middle" x="998.4268" y="-177.2" font-family="Bitstream Vera Sans" font-size="8.00" fill="#ffffff">DoseInterval</text>
</g>
<!-- TimeInterval&#45;&gt;DoseInterval -->
<g id="edge44" class="edge">
<title>TimeInterval-&gt;DoseInterval</title>
<path fill="none" stroke="#444444" d="M1116.8443,-119.9772C1093.3743,-131.7943 1057.829,-149.6912 1031.8054,-162.794"/>
<polygon fill="#444444" stroke="#444444" points="1030.0464,-159.761 1022.6886,-167.3843 1033.1944,-166.0132 1030.0464,-159.761"/>
</g>
<!-- Phenopacket -->
<g id="node51" class="node">
<title>Phenopacket</title>
<ellipse fill="#faa634" stroke="#444444" cx="808.4268" cy="-467.6" rx="32.6983" ry="18"/>
<text text-anchor="middle" x="808.4268" y="-465.2" font-family="Bitstream Vera Sans" font-size="8.00" fill="#ffffff">Phenopacket</text>
</g>
<!-- Biosample&#45;&gt;Phenopacket -->
<g id="edge59" class="edge">
<title>Biosample-&gt;Phenopacket</title>
<path fill="none" stroke="#444444" d="M868.3092,-410.8693C857.8722,-420.757 844.0944,-433.8097 832.386,-444.9019"/>
<polygon fill="#444444" stroke="#444444" points="829.8991,-442.4366 825.0466,-451.8549 834.7133,-447.5183 829.8991,-442.4366"/>
</g>
<!-- PhenotypicFeature&#45;&gt;Biosample -->
<g id="edge8" class="edge">
<title>PhenotypicFeature-&gt;Biosample</title>
<path fill="none" stroke="#444444" d="M1010.2725,-337.1426C983.7579,-349.4591 944.6729,-367.6147 917.1104,-380.418"/>
<polygon fill="#444444" stroke="#444444" points="915.476,-377.3179 907.8812,-384.7051 918.425,-383.6664 915.476,-377.3179"/>
</g>
<!-- PhenotypicFeature&#45;&gt;Phenopacket -->
<g id="edge57" class="edge">
<title>PhenotypicFeature-&gt;Phenopacket</title>
<path fill="none" stroke="#444444" d="M1024.6722,-340.8872C1007.0305,-360.6717 975.8049,-392.9912 943.4268,-413.6 913.3657,-432.734 875.4084,-447.1858 847.4037,-456.3011"/>
<polygon fill="#444444" stroke="#444444" points="846.0454,-453.0598 837.5695,-459.4167 848.1596,-459.733 846.0454,-453.0598"/>
</g>
<!-- HtsFile -->
<g id="node15" class="node">
<title>HtsFile</title>
<ellipse fill="#5bc4bf" stroke="#444444" cx="714.4268" cy="-323.6" rx="27" ry="18"/>
<text text-anchor="middle" x="714.4268" y="-321.2" font-family="Bitstream Vera Sans" font-size="8.00" fill="#ffffff">HtsFile</text>
</g>
<!-- HtsFile&#45;&gt;Biosample -->
<g id="edge10" class="edge">
<title>HtsFile-&gt;Biosample</title>
<path fill="none" stroke="#444444" d="M737.3538,-333.3102C766.6369,-345.7125 817.5318,-367.268 851.0998,-381.485"/>
<polygon fill="#444444" stroke="#444444" points="849.9233,-384.7877 860.4965,-385.4648 852.6533,-378.342 849.9233,-384.7877"/>
</g>
<!-- HtsFile&#45;&gt;Phenopacket -->
<g id="edge63" class="edge">
<title>HtsFile-&gt;Phenopacket</title>
<path fill="none" stroke="#444444" d="M732.1689,-337.4291C744.206,-347.5322 759.8026,-362.1221 770.4268,-377.6 783.6276,-396.8316 793.6121,-421.3751 800.0261,-439.9725"/>
<polygon fill="#444444" stroke="#444444" points="796.7547,-441.2276 803.2199,-449.6212 803.4001,-439.0279 796.7547,-441.2276"/>
</g>
<!-- Family -->
<g id="node52" class="node">
<title>Family</title>
<ellipse fill="#faa634" stroke="#444444" cx="698.4268" cy="-539.6" rx="27" ry="18"/>
<text text-anchor="middle" x="698.4268" y="-537.2" font-family="Bitstream Vera Sans" font-size="8.00" fill="#ffffff">Family</text>
</g>
<!-- HtsFile&#45;&gt;Family -->
<g id="edge67" class="edge">
<title>HtsFile-&gt;Family</title>
<path fill="none" stroke="#444444" d="M696.3082,-337.4848C685.0692,-347.3023 671.6277,-361.5388 665.4268,-377.6 648.1388,-422.3786 652.4261,-439.3941 665.4268,-485.6 668.3729,-496.0706 673.9755,-506.5186 679.7395,-515.3956"/>
<polygon fill="#444444" stroke="#444444" points="676.9042,-517.4493 685.4648,-523.6916 682.6654,-513.4733 676.9042,-517.4493"/>
</g>
<!-- Cohort -->
<g id="node53" class="node">
<title>Cohort</title>
<ellipse fill="#faa634" stroke="#444444" cx="808.4268" cy="-539.6" rx="27" ry="18"/>
<text text-anchor="middle" x="808.4268" y="-537.2" font-family="Bitstream Vera Sans" font-size="8.00" fill="#ffffff">Cohort</text>
</g>
<!-- HtsFile&#45;&gt;Cohort -->
<g id="edge70" class="edge">
<title>HtsFile-&gt;Cohort</title>
<path fill="none" stroke="#444444" d="M706.0294,-341.0137C698.3127,-359.5155 689.342,-389.3797 698.4268,-413.6 715.1551,-458.1977 755.6075,-497.3738 782.5137,-519.7663"/>
<polygon fill="#444444" stroke="#444444" points="780.4196,-522.5744 790.3878,-526.1642 784.8339,-517.1417 780.4196,-522.5744"/>
</g>
<!-- Measurement&#45;&gt;Biosample -->
<g id="edge11" class="edge">
<title>Measurement-&gt;Biosample</title>
<path fill="none" stroke="#444444" d="M830.3109,-339.9379C839.6592,-349.5533 851.632,-361.8682 861.9381,-372.4688"/>
<polygon fill="#444444" stroke="#444444" points="859.6064,-375.0914 869.0867,-379.8216 864.6253,-370.2118 859.6064,-375.0914"/>
</g>
<!-- Measurement&#45;&gt;Phenopacket -->
<g id="edge58" class="edge">
<title>Measurement-&gt;Phenopacket</title>
<path fill="none" stroke="#444444" d="M813.6669,-341.8377C812.6435,-366.399 810.8121,-410.3526 809.6082,-439.2459"/>
<polygon fill="#444444" stroke="#444444" points="806.1,-439.3733 809.1806,-449.5104 813.0939,-439.6648 806.1,-439.3733"/>
</g>
<!-- Disease -->
<g id="node17" class="node">
<title>Disease</title>
<ellipse fill="#1b75bc" stroke="#444444" cx="734.4268" cy="-395.6" rx="27" ry="18"/>
<text text-anchor="middle" x="734.4268" y="-393.2" font-family="Bitstream Vera Sans" font-size="8.00" fill="#ffffff">Disease</text>
</g>
<!-- Disease&#45;&gt;Phenopacket -->
<g id="edge61" class="edge">
<title>Disease-&gt;Phenopacket</title>
<path fill="none" stroke="#444444" d="M749.7597,-410.5184C759.9,-420.3847 773.3928,-433.5128 784.8818,-444.6913"/>
<polygon fill="#444444" stroke="#444444" points="782.479,-447.2368 792.087,-451.7018 787.3605,-442.2197 782.479,-447.2368"/>
</g>
<!-- HtsFormat -->
<g id="node18" class="node">
<title>HtsFormat</title>
<ellipse fill="#5bc4bf" stroke="#444444" cx="628.4268" cy="-251.6" rx="28.5678" ry="18"/>
<text text-anchor="middle" x="628.4268" y="-249.2" font-family="Bitstream Vera Sans" font-size="8.00" fill="#ffffff">HtsFormat</text>
</g>
<!-- HtsFormat&#45;&gt;HtsFile -->
<g id="edge12" class="edge">
<title>HtsFormat-&gt;HtsFile</title>
<path fill="none" stroke="#444444" d="M645.8302,-266.1703C658.385,-276.6812 675.5169,-291.0242 689.5187,-302.7467"/>
<polygon fill="#444444" stroke="#444444" points="687.4284,-305.5614 697.3428,-309.2971 691.922,-300.194 687.4284,-305.5614"/>
</g>
<!-- Individual&#45;&gt;Phenopacket -->
<g id="edge56" class="edge">
<title>Individual-&gt;Phenopacket</title>
<path fill="none" stroke="#444444" d="M461.324,-400.7781C525.9502,-413.2195 690.3024,-444.8595 767.3667,-459.6954"/>
<polygon fill="#444444" stroke="#444444" points="767.1607,-463.2199 777.642,-461.6735 768.484,-456.3461 767.1607,-463.2199"/>
</g>
<!-- VitalStatus -->
<g id="node20" class="node">
<title>VitalStatus</title>
<ellipse fill="#1b75bc" stroke="#444444" cx="476.4268" cy="-323.6" rx="29.5959" ry="18"/>
<text text-anchor="middle" x="476.4268" y="-321.2" font-family="Bitstream Vera Sans" font-size="8.00" fill="#ffffff">VitalStatus</text>
</g>
<!-- VitalStatus&#45;&gt;Individual -->
<g id="edge13" class="edge">
<title>VitalStatus-&gt;Individual</title>
<path fill="none" stroke="#444444" d="M466.4734,-340.663C461.3998,-349.3607 455.1235,-360.1201 449.4738,-369.8052"/>
<polygon fill="#444444" stroke="#444444" points="446.3243,-368.2581 444.3088,-378.6595 452.3708,-371.7852 446.3243,-368.2581"/>
</g>
<!-- Interpretation -->
<g id="node21" class="node">
<title>Interpretation</title>
<ellipse fill="#63498b" stroke="#444444" cx="579.4268" cy="-395.6" rx="34.2486" ry="18"/>
<text text-anchor="middle" x="579.4268" y="-393.2" font-family="Bitstream Vera Sans" font-size="8.00" fill="#ffffff">Interpretation</text>
</g>
<!-- Interpretation&#45;&gt;Phenopacket -->
<g id="edge60" class="edge">
<title>Interpretation-&gt;Phenopacket</title>
<path fill="none" stroke="#444444" d="M608.8958,-404.8653C649.9996,-417.7888 724.5963,-441.2428 770.0141,-455.5227"/>
<polygon fill="#444444" stroke="#444444" points="769.2018,-458.9361 779.7912,-458.5967 771.3014,-452.2584 769.2018,-458.9361"/>
</g>
<!-- ProgressStatus -->
<g id="node22" class="node">
<title>ProgressStatus</title>
<ellipse fill="#63498b" stroke="#444444" cx="633.4268" cy="-323.6" rx="36.3381" ry="18"/>
<text text-anchor="middle" x="633.4268" y="-321.2" font-family="Bitstream Vera Sans" font-size="8.00" fill="#ffffff">ProgressStatus</text>
</g>
<!-- ProgressStatus&#45;&gt;Interpretation -->
<g id="edge16" class="edge">
<title>ProgressStatus-&gt;Interpretation</title>
<path fill="none" stroke="#444444" d="M620.6296,-340.663C613.9718,-349.54 605.7034,-360.5646 598.3246,-370.4029"/>
<polygon fill="#444444" stroke="#444444" points="595.3322,-368.5595 592.1322,-378.6595 600.9323,-372.7595 595.3322,-368.5595"/>
</g>
<!-- Diagnosis -->
<g id="node23" class="node">
<title>Diagnosis</title>
<ellipse fill="#63498b" stroke="#444444" cx="551.4268" cy="-323.6" rx="27.5185" ry="18"/>
<text text-anchor="middle" x="551.4268" y="-321.2" font-family="Bitstream Vera Sans" font-size="8.00" fill="#ffffff">Diagnosis</text>
</g>
<!-- Diagnosis&#45;&gt;Interpretation -->
<g id="edge17" class="edge">
<title>Diagnosis-&gt;Interpretation</title>
<path fill="none" stroke="#444444" d="M558.3482,-341.3978C561.5117,-349.5325 565.3296,-359.3499 568.842,-368.3819"/>
<polygon fill="#444444" stroke="#444444" points="565.6015,-369.706 572.4881,-377.7575 572.1256,-367.1688 565.6015,-369.706"/>
</g>
<!-- GenomicInterpretation -->
<g id="node24" class="node">
<title>GenomicInterpretation</title>
<ellipse fill="#63498b" stroke="#444444" cx="530.4268" cy="-251.6" rx="50.8633" ry="18"/>
<text text-anchor="middle" x="530.4268" y="-249.2" font-family="Bitstream Vera Sans" font-size="8.00" fill="#ffffff">GenomicInterpretation</text>
</g>
<!-- GenomicInterpretation&#45;&gt;Diagnosis -->
<g id="edge18" class="edge">
<title>GenomicInterpretation-&gt;Diagnosis</title>
<path fill="none" stroke="#444444" d="M535.726,-269.7686C538.0316,-277.6734 540.7847,-287.1128 543.337,-295.8635"/>
<polygon fill="#444444" stroke="#444444" points="540.042,-297.0666 546.2021,-305.6866 546.762,-295.1066 540.042,-297.0666"/>
</g>
<!-- InterpretationStatus -->
<g id="node25" class="node">
<title>InterpretationStatus</title>
<ellipse fill="#63498b" stroke="#444444" cx="632.4268" cy="-179.6" rx="45.1665" ry="18"/>
<text text-anchor="middle" x="632.4268" y="-177.2" font-family="Bitstream Vera Sans" font-size="8.00" fill="#ffffff">InterpretationStatus</text>
</g>
<!-- InterpretationStatus&#45;&gt;GenomicInterpretation -->
<g id="edge19" class="edge">
<title>InterpretationStatus-&gt;GenomicInterpretation</title>
<path fill="none" stroke="#444444" d="M610.0425,-195.4007C595.8911,-205.3899 577.3937,-218.4469 561.7904,-229.461"/>
<polygon fill="#444444" stroke="#444444" points="559.617,-226.711 553.4657,-235.3373 563.6538,-232.4298 559.617,-226.711"/>
</g>
<!-- VariantInterpretation -->
<g id="node26" class="node">
<title>VariantInterpretation</title>
<ellipse fill="#63498b" stroke="#444444" cx="426.4268" cy="-179.6" rx="47.7458" ry="18"/>
<text text-anchor="middle" x="426.4268" y="-177.2" font-family="Bitstream Vera Sans" font-size="8.00" fill="#ffffff">VariantInterpretation</text>
</g>
<!-- VariantInterpretation&#45;&gt;GenomicInterpretation -->
<g id="edge21" class="edge">
<title>VariantInterpretation-&gt;GenomicInterpretation</title>
<path fill="none" stroke="#444444" d="M449.5078,-195.5791C463.9485,-205.5765 482.7521,-218.5944 498.5981,-229.5647"/>
<polygon fill="#444444" stroke="#444444" points="496.8366,-232.6021 507.0507,-235.4166 500.8211,-226.8467 496.8366,-232.6021"/>
</g>
<!-- AcmgPathogenicityClassification -->
<g id="node27" class="node">
<title>AcmgPathogenicityClassification</title>
<ellipse fill="#63498b" stroke="#444444" cx="426.4268" cy="-107.6" rx="70.6113" ry="18"/>
<text text-anchor="middle" x="426.4268" y="-105.2" font-family="Bitstream Vera Sans" font-size="8.00" fill="#ffffff">AcmgPathogenicityClassification</text>
</g>
<!-- AcmgPathogenicityClassification&#45;&gt;VariantInterpretation -->
<g id="edge22" class="edge">
<title>AcmgPathogenicityClassification-&gt;VariantInterpretation</title>
<path fill="none" stroke="#444444" d="M426.4268,-125.7686C426.4268,-133.469 426.4268,-142.6257 426.4268,-151.1834"/>
<polygon fill="#444444" stroke="#444444" points="422.9269,-151.1867 426.4268,-161.1867 429.9269,-151.1868 422.9269,-151.1867"/>
</g>
<!-- TherapeuticActionability -->
<g id="node28" class="node">
<title>TherapeuticActionability</title>
<ellipse fill="#63498b" stroke="#444444" cx="570.4268" cy="-107.6" rx="55.0287" ry="18"/>
<text text-anchor="middle" x="570.4268" y="-105.2" font-family="Bitstream Vera Sans" font-size="8.00" fill="#ffffff">TherapeuticActionability</text>
</g>
<!-- TherapeuticActionability&#45;&gt;VariantInterpretation -->
<g id="edge23" class="edge">
<title>TherapeuticActionability-&gt;VariantInterpretation</title>
<path fill="none" stroke="#444444" d="M540.2397,-122.6936C518.252,-133.6874 488.3028,-148.662 464.6455,-160.4907"/>
<polygon fill="#444444" stroke="#444444" points="462.9694,-157.4155 455.5904,-165.0182 466.1,-163.6765 462.9694,-157.4155"/>
</g>
<!-- GeneDescriptor -->
<g id="node29" class="node">
<title>GeneDescriptor</title>
<ellipse fill="#5bc4bf" stroke="#444444" cx="530.4268" cy="-179.6" rx="38.3918" ry="18"/>
<text text-anchor="middle" x="530.4268" y="-177.2" font-family="Bitstream Vera Sans" font-size="8.00" fill="#ffffff">GeneDescriptor</text>
</g>
<!-- GeneDescriptor&#45;&gt;GenomicInterpretation -->
<g id="edge20" class="edge">
<title>GeneDescriptor-&gt;GenomicInterpretation</title>
<path fill="none" stroke="#444444" d="M530.4268,-197.7686C530.4268,-205.469 530.4268,-214.6257 530.4268,-223.1834"/>
<polygon fill="#444444" stroke="#444444" points="526.9269,-223.1867 530.4268,-233.1867 533.9269,-223.1868 526.9269,-223.1867"/>
</g>
<!-- VariationDescriptor -->
<g id="node30" class="node">
<title>VariationDescriptor</title>
<ellipse fill="#5bc4bf" stroke="#444444" cx="291.4268" cy="-107.6" rx="45.6752" ry="18"/>
<text text-anchor="middle" x="291.4268" y="-105.2" font-family="Bitstream Vera Sans" font-size="8.00" fill="#ffffff">VariationDescriptor</text>
</g>
<!-- VariationDescriptor&#45;&gt;VariantInterpretation -->
<g id="edge24" class="edge">
<title>VariationDescriptor-&gt;VariantInterpretation</title>
<path fill="none" stroke="#444444" d="M318.7461,-122.1703C339.1963,-133.0771 367.3829,-148.1099 389.7885,-160.0595"/>
<polygon fill="#444444" stroke="#444444" points="388.2142,-163.1866 398.6848,-164.8043 391.5084,-157.0101 388.2142,-163.1866"/>
</g>
<!-- VcfRecord -->
<g id="node31" class="node">
<title>VcfRecord</title>
<ellipse fill="#5bc4bf" stroke="#444444" cx="365.4268" cy="-35.6" rx="29.0683" ry="18"/>
<text text-anchor="middle" x="365.4268" y="-33.2" font-family="Bitstream Vera Sans" font-size="8.00" fill="#ffffff">VcfRecord</text>
</g>
<!-- VcfRecord&#45;&gt;VariationDescriptor -->
<g id="edge28" class="edge">
<title>VcfRecord-&gt;VariationDescriptor</title>
<path fill="none" stroke="#444444" d="M349.7333,-50.8693C339.9436,-60.3945 327.135,-72.8569 316.0172,-83.6743"/>
<polygon fill="#444444" stroke="#444444" points="313.3747,-81.362 308.6482,-90.8441 318.2562,-86.3791 313.3747,-81.362"/>
</g>
<!-- Expression -->
<g id="node32" class="node">
<title>Expression</title>
<ellipse fill="#5bc4bf" stroke="#444444" cx="442.4268" cy="-35.6" rx="29.5904" ry="18"/>
<text text-anchor="middle" x="442.4268" y="-33.2" font-family="Bitstream Vera Sans" font-size="8.00" fill="#ffffff">Expression</text>
</g>
<!-- Expression&#45;&gt;VariationDescriptor -->
<g id="edge25" class="edge">
<title>Expression-&gt;VariationDescriptor</title>
<path fill="none" stroke="#444444" d="M418.8331,-46.85C395.0604,-58.1853 357.9805,-75.8658 329.9403,-89.236"/>
<polygon fill="#444444" stroke="#444444" points="328.3298,-86.1263 320.8099,-93.5896 331.3427,-92.4448 328.3298,-86.1263"/>
</g>
<!-- Extension -->
<g id="node33" class="node">
<title>Extension</title>
<ellipse fill="#5bc4bf" stroke="#444444" cx="118.4268" cy="-35.6" rx="27.5195" ry="18"/>
<text text-anchor="middle" x="118.4268" y="-33.2" font-family="Bitstream Vera Sans" font-size="8.00" fill="#ffffff">Extension</text>
</g>
<!-- Extension&#45;&gt;VariationDescriptor -->
<g id="edge26" class="edge">
<title>Extension-&gt;VariationDescriptor</title>
<path fill="none" stroke="#444444" d="M140.6056,-46.723C145.4581,-49.0629 150.5902,-51.4669 155.4268,-53.6 186.2723,-67.2039 221.6834,-81.2144 248.6383,-91.5544"/>
<polygon fill="#444444" stroke="#444444" points="247.5716,-94.8935 258.1623,-95.1902 250.0682,-88.3538 247.5716,-94.8935"/>
</g>
<!-- MoleculeContext -->
<g id="node34" class="node">
<title>MoleculeContext</title>
<ellipse fill="#5bc4bf" stroke="#444444" cx="205.4268" cy="-35.6" rx="41.0133" ry="18"/>
<text text-anchor="middle" x="205.4268" y="-33.2" font-family="Bitstream Vera Sans" font-size="8.00" fill="#ffffff">MoleculeContext</text>
</g>
<!-- MoleculeContext&#45;&gt;VariationDescriptor -->
<g id="edge27" class="edge">
<title>MoleculeContext-&gt;VariationDescriptor</title>
<path fill="none" stroke="#444444" d="M224.513,-51.5791C236.1513,-61.3228 251.2164,-73.9355 264.1045,-84.7255"/>
<polygon fill="#444444" stroke="#444444" points="261.8834,-87.4306 271.7978,-91.1664 266.3769,-82.0633 261.8834,-87.4306"/>
</g>
<!-- Variation -->
<g id="node35" class="node">
<title>Variation</title>
<ellipse fill="#5bc4bf" stroke="#444444" cx="291.4268" cy="-35.6" rx="27" ry="18"/>
<text text-anchor="middle" x="291.4268" y="-33.2" font-family="Bitstream Vera Sans" font-size="8.00" fill="#ffffff">Variation</text>
</g>
<!-- Variation&#45;&gt;VariationDescriptor -->
<g id="edge29" class="edge">
<title>Variation-&gt;VariationDescriptor</title>
<path fill="none" stroke="#444444" d="M291.4268,-53.7686C291.4268,-61.469 291.4268,-70.6257 291.4268,-79.1834"/>
<polygon fill="#444444" stroke="#444444" points="287.9269,-79.1867 291.4268,-89.1867 294.9269,-79.1868 287.9269,-79.1867"/>
</g>
<!-- Value -->
<g id="node36" class="node">
<title>Value</title>
<ellipse fill="#4da8d4" stroke="#444444" cx="794.4268" cy="-251.6" rx="27" ry="18"/>
<text text-anchor="middle" x="794.4268" y="-249.2" font-family="Bitstream Vera Sans" font-size="8.00" fill="#ffffff">Value</text>
</g>
<!-- Value&#45;&gt;Measurement -->
<g id="edge34" class="edge">
<title>Value-&gt;Measurement</title>
<path fill="none" stroke="#444444" d="M799.3706,-269.3978C801.6063,-277.4459 804.2994,-287.1412 806.7861,-296.0933"/>
<polygon fill="#444444" stroke="#444444" points="803.4217,-297.059 809.4706,-305.7575 810.1664,-295.1855 803.4217,-297.059"/>
</g>
<!-- Quantity -->
<g id="node37" class="node">
<title>Quantity</title>
<ellipse fill="#4da8d4" stroke="#444444" cx="879.4268" cy="-107.6" rx="27" ry="18"/>
<text text-anchor="middle" x="879.4268" y="-105.2" font-family="Bitstream Vera Sans" font-size="8.00" fill="#ffffff">Quantity</text>
</g>
<!-- Quantity&#45;&gt;Value -->
<g id="edge30" class="edge">
<title>Quantity-&gt;Value</title>
<path fill="none" stroke="#444444" d="M868.0932,-124.4377C861.0906,-134.9977 852.0225,-148.9596 844.4268,-161.6 831.6478,-182.8663 818.0271,-207.53 808.2344,-225.6549"/>
<polygon fill="#444444" stroke="#444444" points="805.14,-224.0193 803.4871,-234.4844 811.3054,-227.3342 805.14,-224.0193"/>
</g>
<!-- TypedQuantity -->
<g id="node39" class="node">
<title>TypedQuantity</title>
<ellipse fill="#4da8d4" stroke="#444444" cx="748.4268" cy="-179.6" rx="36.8635" ry="18"/>
<text text-anchor="middle" x="748.4268" y="-177.2" font-family="Bitstream Vera Sans" font-size="8.00" fill="#ffffff">TypedQuantity</text>
</g>
<!-- Quantity&#45;&gt;TypedQuantity -->
<g id="edge32" class="edge">
<title>Quantity-&gt;TypedQuantity</title>
<path fill="none" stroke="#444444" d="M858.3794,-119.168C837.7288,-130.518 805.9164,-148.0027 781.8134,-161.2501"/>
<polygon fill="#444444" stroke="#444444" points="780.0702,-158.2144 772.9924,-166.0983 783.4419,-164.3489 780.0702,-158.2144"/>
</g>
<!-- Treatment -->
<g id="node42" class="node">
<title>Treatment</title>
<ellipse fill="#aaaaaa" stroke="#444444" cx="941.4268" cy="-251.6" rx="28.0255" ry="18"/>
<text text-anchor="middle" x="941.4268" y="-249.2" font-family="Bitstream Vera Sans" font-size="8.00" fill="#ffffff">Treatment</text>
</g>
<!-- Quantity&#45;&gt;Treatment -->
<g id="edge45" class="edge">
<title>Quantity-&gt;Treatment</title>
<path fill="none" stroke="#444444" d="M893.0802,-123.1408C901.4791,-133.4281 911.8566,-147.5655 918.4268,-161.6 927.6294,-181.2574 933.5128,-205.1209 937.0236,-223.3349"/>
<polygon fill="#444444" stroke="#444444" points="933.6068,-224.1103 938.8236,-233.3317 940.496,-222.8698 933.6068,-224.1103"/>
</g>
<!-- Quantity&#45;&gt;DoseInterval -->
<g id="edge43" class="edge">
<title>Quantity-&gt;DoseInterval</title>
<path fill="none" stroke="#444444" d="M899.6136,-119.8138C918.1806,-131.0477 945.9923,-147.8749 967.3843,-160.818"/>
<polygon fill="#444444" stroke="#444444" points="965.746,-163.9175 976.1137,-166.0996 969.3697,-157.9284 965.746,-163.9175"/>
</g>
<!-- ComplexValue -->
<g id="node38" class="node">
<title>ComplexValue</title>
<ellipse fill="#4da8d4" stroke="#444444" cx="712.4268" cy="-251.6" rx="36.8626" ry="18"/>
<text text-anchor="middle" x="712.4268" y="-249.2" font-family="Bitstream Vera Sans" font-size="8.00" fill="#ffffff">ComplexValue</text>
</g>
<!-- ComplexValue&#45;&gt;Measurement -->
<g id="edge35" class="edge">
<title>ComplexValue-&gt;Measurement</title>
<path fill="none" stroke="#444444" d="M733.5613,-266.5184C748.5679,-277.1113 768.9011,-291.4642 785.4238,-303.1273"/>
<polygon fill="#444444" stroke="#444444" points="783.4803,-306.0395 793.6684,-308.947 787.5171,-300.3207 783.4803,-306.0395"/>
</g>
<!-- TypedQuantity&#45;&gt;ComplexValue -->
<g id="edge31" class="edge">
<title>TypedQuantity-&gt;ComplexValue</title>
<path fill="none" stroke="#444444" d="M739.5279,-197.3978C735.3864,-205.6808 730.3726,-215.7085 725.7892,-224.8752"/>
<polygon fill="#444444" stroke="#444444" points="722.565,-223.4974 721.2233,-234.007 728.826,-226.628 722.565,-223.4974"/>
</g>
<!-- ReferenceRange -->
<g id="node40" class="node">
<title>ReferenceRange</title>
<ellipse fill="#4da8d4" stroke="#444444" cx="879.4268" cy="-35.6" rx="39.4311" ry="18"/>
<text text-anchor="middle" x="879.4268" y="-33.2" font-family="Bitstream Vera Sans" font-size="8.00" fill="#ffffff">ReferenceRange</text>
</g>
<!-- ReferenceRange&#45;&gt;Quantity -->
<g id="edge33" class="edge">
<title>ReferenceRange-&gt;Quantity</title>
<path fill="none" stroke="#444444" d="M879.4268,-53.7686C879.4268,-61.469 879.4268,-70.6257 879.4268,-79.1834"/>
<polygon fill="#444444" stroke="#444444" points="875.9269,-79.1867 879.4268,-89.1867 882.9269,-79.1868 875.9269,-79.1867"/>
</g>
<!-- MedicalAction&#45;&gt;Phenopacket -->
<g id="edge62" class="edge">
<title>MedicalAction-&gt;Phenopacket</title>
<path fill="none" stroke="#444444" d="M942.1201,-341.7917C941.9268,-361.5085 938.7531,-392.9179 922.4268,-413.6 904.2396,-436.6396 873.8468,-450.3562 849.0149,-458.1967"/>
<polygon fill="#444444" stroke="#444444" points="847.7185,-454.9297 839.1142,-461.1117 849.6957,-461.6447 847.7185,-454.9297"/>
</g>
<!-- Treatment&#45;&gt;MedicalAction -->
<g id="edge38" class="edge">
<title>Treatment-&gt;MedicalAction</title>
<path fill="none" stroke="#444444" d="M941.4268,-269.7686C941.4268,-277.469 941.4268,-286.6257 941.4268,-295.1834"/>
<polygon fill="#444444" stroke="#444444" points="937.9269,-295.1867 941.4268,-305.1867 944.9269,-295.1868 937.9269,-295.1867"/>
</g>
<!-- RadiationTherapy -->
<g id="node43" class="node">
<title>RadiationTherapy</title>
<ellipse fill="#aaaaaa" stroke="#444444" cx="1029.4268" cy="-251.6" rx="42.0548" ry="18"/>
<text text-anchor="middle" x="1029.4268" y="-249.2" font-family="Bitstream Vera Sans" font-size="8.00" fill="#ffffff">RadiationTherapy</text>
</g>
<!-- RadiationTherapy&#45;&gt;MedicalAction -->
<g id="edge39" class="edge">
<title>RadiationTherapy-&gt;MedicalAction</title>
<path fill="none" stroke="#444444" d="M1009.8968,-267.5791C997.6524,-277.5972 981.7011,-290.6483 968.2755,-301.6329"/>
<polygon fill="#444444" stroke="#444444" points="965.8215,-299.1184 960.2983,-308.1597 970.2542,-304.5362 965.8215,-299.1184"/>
</g>
<!-- TherapeuticRegimen&#45;&gt;MedicalAction -->
<g id="edge40" class="edge">
<title>TherapeuticRegimen-&gt;MedicalAction</title>
<path fill="none" stroke="#444444" d="M1102.2039,-263.7813C1071.5147,-274.4936 1025.873,-290.6634 986.4268,-305.6 984.0858,-306.4865 981.6811,-307.41 979.2592,-308.35"/>
<polygon fill="#444444" stroke="#444444" points="977.9594,-305.1001 969.931,-312.0136 980.5184,-311.6157 977.9594,-305.1001"/>
</g>
<!-- RegimenStatus -->
<g id="node45" class="node">
<title>RegimenStatus</title>
<ellipse fill="#aaaaaa" stroke="#444444" cx="1132.4268" cy="-179.6" rx="36.8699" ry="18"/>
<text text-anchor="middle" x="1132.4268" y="-177.2" font-family="Bitstream Vera Sans" font-size="8.00" fill="#ffffff">RegimenStatus</text>
</g>
<!-- RegimenStatus&#45;&gt;TherapeuticRegimen -->
<g id="edge47" class="edge">
<title>RegimenStatus-&gt;TherapeuticRegimen</title>
<path fill="none" stroke="#444444" d="M1133.6885,-197.7686C1134.2233,-205.469 1134.8592,-214.6257 1135.4535,-223.1834"/>
<polygon fill="#444444" stroke="#444444" points="1131.9637,-223.4533 1136.1481,-233.1867 1138.9469,-222.9683 1131.9637,-223.4533"/>
</g>
<!-- DoseInterval&#45;&gt;Treatment -->
<g id="edge41" class="edge">
<title>DoseInterval-&gt;Treatment</title>
<path fill="none" stroke="#444444" d="M985.2066,-196.2992C977.8367,-205.6085 968.5315,-217.3626 960.3968,-227.6379"/>
<polygon fill="#444444" stroke="#444444" points="957.6462,-225.4737 954.1833,-235.4866 963.1345,-229.8186 957.6462,-225.4737"/>
</g>
<!-- DrugType -->
<g id="node47" class="node">
<title>DrugType</title>
<ellipse fill="#aaaaaa" stroke="#444444" cx="881.4268" cy="-179.6" rx="28.0291" ry="18"/>
<text text-anchor="middle" x="881.4268" y="-177.2" font-family="Bitstream Vera Sans" font-size="8.00" fill="#ffffff">DrugType</text>
</g>
<!-- DrugType&#45;&gt;Treatment -->
<g id="edge42" class="edge">
<title>DrugType-&gt;Treatment</title>
<path fill="none" stroke="#444444" d="M894.7428,-195.5791C902.6661,-205.0872 912.8661,-217.3272 921.7098,-227.9396"/>
<polygon fill="#444444" stroke="#444444" points="919.0574,-230.224 928.1481,-235.6655 924.435,-225.7426 919.0574,-230.224"/>
</g>
<!-- Pedigree -->
<g id="node48" class="node">
<title>Pedigree</title>
<ellipse fill="#8bc751" stroke="#444444" cx="448.4268" cy="-467.6" rx="27" ry="18"/>
<text text-anchor="middle" x="448.4268" y="-465.2" font-family="Bitstream Vera Sans" font-size="8.00" fill="#ffffff">Pedigree</text>
</g>
<!-- Pedigree&#45;&gt;Family -->
<g id="edge66" class="edge">
<title>Pedigree-&gt;Family</title>
<path fill="none" stroke="#444444" d="M473.3118,-474.7669C518.1209,-487.6719 612.4641,-514.8427 663.6395,-529.5812"/>
<polygon fill="#444444" stroke="#444444" points="662.6934,-532.951 673.2715,-532.3553 664.6307,-526.2244 662.6934,-532.951"/>
</g>
<!-- Person&#45;&gt;Pedigree -->
<g id="edge48" class="edge">
<title>Person-&gt;Pedigree</title>
<path fill="none" stroke="#444444" d="M331.9893,-406.85C355.0793,-418.8969 391.9056,-438.1107 417.9526,-451.7004"/>
<polygon fill="#444444" stroke="#444444" points="416.5309,-454.9063 427.0157,-456.429 419.7689,-448.7002 416.5309,-454.9063"/>
</g>
<!-- AffectedStatus -->
<g id="node50" class="node">
<title>AffectedStatus</title>
<ellipse fill="#8bc751" stroke="#444444" cx="229.4268" cy="-323.6" rx="36.3318" ry="18"/>
<text text-anchor="middle" x="229.4268" y="-321.2" font-family="Bitstream Vera Sans" font-size="8.00" fill="#ffffff">AffectedStatus</text>
</g>
<!-- AffectedStatus&#45;&gt;Person -->
<g id="edge50" class="edge">
<title>AffectedStatus-&gt;Person</title>
<path fill="none" stroke="#444444" d="M247.4034,-339.5791C258.8733,-349.7746 273.8772,-363.1114 286.368,-374.2144"/>
<polygon fill="#444444" stroke="#444444" points="284.3516,-377.1048 294.151,-381.1326 289.0021,-371.8729 284.3516,-377.1048"/>
</g>
<!-- Phenopacket&#45;&gt;Family -->
<g id="edge65" class="edge">
<title>Phenopacket-&gt;Family</title>
<path fill="none" stroke="#444444" d="M787.2177,-481.4823C769.8633,-492.8416 745.1807,-508.9975 726.2426,-521.3933"/>
<polygon fill="#444444" stroke="#444444" points="724.1792,-518.5608 717.729,-526.9659 728.0128,-524.4177 724.1792,-518.5608"/>
</g>
<!-- Phenopacket&#45;&gt;Cohort -->
<g id="edge69" class="edge">
<title>Phenopacket-&gt;Cohort</title>
<path fill="none" stroke="#444444" d="M808.4268,-485.7686C808.4268,-493.469 808.4268,-502.6257 808.4268,-511.1834"/>
<polygon fill="#444444" stroke="#444444" points="804.9269,-511.1867 808.4268,-521.1867 811.9269,-511.1868 804.9269,-511.1867"/>
</g>
<!-- MetaData&#45;&gt;Phenopacket -->
<g id="edge64" class="edge">
<title>MetaData-&gt;Phenopacket</title>
<path fill="none" stroke="#444444" d="M1070.8687,-401.9895C1020.506,-414.5802 908.1259,-442.6752 848.0666,-457.6901"/>
<polygon fill="#444444" stroke="#444444" points="847.043,-454.3382 838.1905,-460.1591 848.7408,-461.1292 847.043,-454.3382"/>
</g>
<!-- MetaData&#45;&gt;Family -->
<g id="edge68" class="edge">
<title>MetaData-&gt;Family</title>
<path fill="none" stroke="#444444" d="M1072.3607,-404.4896C1028.3522,-420.7266 931.9248,-456.216 850.4268,-485.6 809.8344,-500.2356 763.0418,-516.8155 732.2177,-527.6974"/>
<polygon fill="#444444" stroke="#444444" points="730.6742,-524.5304 722.4085,-531.1583 733.0033,-531.1316 730.6742,-524.5304"/>
</g>
<!-- MetaData&#45;&gt;Cohort -->
<g id="edge71" class="edge">
<title>MetaData-&gt;Cohort</title>
<path fill="none" stroke="#444444" d="M1078.1877,-409.2071C1052.1866,-428.1578 1002.4994,-462.7392 956.4268,-485.6 919.0054,-504.1682 873.5555,-519.8016 842.9772,-529.3928"/>
<polygon fill="#444444" stroke="#444444" points="841.7322,-526.1141 833.2104,-532.4093 843.798,-532.8023 841.7322,-526.1141"/>
</g>
<!-- Resource -->
<g id="node55" class="node">
<title>Resource</title>
<ellipse fill="#1b75bc" stroke="#444444" cx="1340.4268" cy="-323.6" rx="27" ry="18"/>
<text text-anchor="middle" x="1340.4268" y="-321.2" font-family="Bitstream Vera Sans" font-size="8.00" fill="#ffffff">Resource</text>
</g>
<!-- Resource&#45;&gt;MetaData -->
<g id="edge52" class="edge">
<title>Resource-&gt;MetaData</title>
<path fill="none" stroke="#444444" d="M1318.1192,-334.1351C1312.1227,-336.7619 1305.5899,-339.4418 1299.4268,-341.6 1241.995,-361.7117 1173.189,-378.5472 1132.2351,-387.8331"/>
<polygon fill="#444444" stroke="#444444" points="1131.4385,-384.4247 1122.4471,-390.0286 1132.9707,-391.255 1131.4385,-384.4247"/>
</g>
<!-- Update -->
<g id="node56" class="node">
<title>Update</title>
<ellipse fill="#1b75bc" stroke="#444444" cx="1128.4268" cy="-323.6" rx="27" ry="18"/>
<text text-anchor="middle" x="1128.4268" y="-321.2" font-family="Bitstream Vera Sans" font-size="8.00" fill="#ffffff">Update</text>
</g>
<!-- Update&#45;&gt;MetaData -->
<g id="edge53" class="edge">
<title>Update-&gt;MetaData</title>
<path fill="none" stroke="#444444" d="M1120.6805,-341.0292C1116.9739,-349.3691 1112.4534,-359.5402 1108.324,-368.8314"/>
<polygon fill="#444444" stroke="#444444" points="1105.0758,-367.5221 1104.2127,-378.0818 1111.4725,-370.3651 1105.0758,-367.5221"/>
</g>
</g>
</svg>